<?xml version="1.0" standalone="yes"?>
<svg width="205" height="104">
<path style="fill:#000000; stroke:none;" d="M86 65L87 65C94.7508 47.6288 107.623 53.6609 123 50L123 48C118.399 46.6371 112.273 47.5622 108.398 44.2724C98.8253 36.145 122.435 25.3872 128 23.0008C149.041 13.9781 172.244 11.0025 195 11L195 9C162.609 9 130.126 11.6096 104 33.2855C93.0582 42.3636 82.5048 48.8685 86 65M28 19C26.9163 24.2502 23.5185 31.4878 24.4884 36.841C25.5251 42.5628 33.2556 39.1556 35 36L31 38C31.1616 34.2518 32.4325 33.0407 36 32C31.5991 25.3121 28.5308 34.9275 26 38C27.1767 32.3144 31.7151 24.1021 28 19M4 24L8 27L7 30L2 32L5 41L9 35L7 36L7 32L17 28L9 29L20 24L4 24M46 28L46 41L51 32L50 40C53.6545 37.418 52.9973 33.1369 53 29L46 28M23 40C22.6843 37.6533 23.9868 32.489 22.7639 30.662C20.453 27.2096 12.4825 35.7176 16.6173 38.8418C18.15 39.9999 21.1762 39.783 23 40M39.3789 30.0471C35.1332 32.6717 35.6413 42.3103 41.7762 38.8017C46.2062 36.2682 44.8491 26.6654 39.3789 30.0471z"/>
<path style="fill:#ffffff; stroke:none;" d="M20 32L17 37L20 32M38 37L43 32L38 37z"/>
<path style="fill:#000000; stroke:none;" d="M119 41L133 42L133 40L123 38C131.651 34.7754 150.367 31.1081 156 41L135 42C127.809 56.9419 145.37 82.9339 160 87C154.544 78.7433 137.723 61.1724 143.194 50.0154C150.28 35.5621 186.73 41.5575 187.681 58C188.317 68.9874 173.787 74.0821 169 82C174.33 80.7474 178.834 77.339 183 73.8549C185.541 71.7299 188.352 69.5765 190.351 66.9105C197.111 57.8948 192.98 46.572 184 40.9946C173.647 34.5646 151.963 32.3124 140 32.0147C132.394 31.8254 121.557 32.3618 119 41z"/>
<path style="fill:#ffffff; stroke:none;" d="M101 40L90 52L105 48L101 40z"/>
<path style="fill:#000000; stroke:none;" d="M41 42C40.5099 48.2101 40.6591 56.4893 36 61C38.3832 50.4187 30.9636 52.3721 30 61L21 59L24 47L22 47L18 63C23.4675 62.1394 38.1806 66.1881 40 60C44.8149 63.0319 48.4733 63.3158 54 62L54 65L62 54C59.7954 66.0958 78.7578 66.4101 83 58L75 60L75 59C86.5304 57.1993 75.4315 47.1245 74 61L72 61L76 43L63 60L65 52L63 54L62 54C57.162 50.8024 52.9021 59.3278 48 61L54 52C48.6302 52.8491 47.4262 56.1334 46 61L43 59L43 58L46 51L45 51L41 57C42.4038 52.0045 44.382 46.465 41 42M65 45L64 51L67 45L65 45z"/>
<path style="fill:#ffffff; stroke:none;" d="M138 57L139 57L141 46C134.639 47.0623 136.642 52.1651 138 57M50 57L53 55L50 57M69 55L67 60L71 55L69 55M77 57L80 55L77 57M32 60L36 56L32 60M139.333 58.6667L139.667 59.3333L139.333 58.6667M55 59L54 62L57 62L55 59z"/>
<path style="fill:#000000; stroke:none;" d="M75 78L72 76L69 85L70 76L67 87C71.9847 87.0396 73.6375 89.1192 74 94L75 94L77 80L81 80L80 87L87 88L88 76L79 79C87.3057 68.589 78.4591 64.7782 75 78M101 69C98.3236 74.8202 91.7608 75.0341 89.7469 80.0579C87.4109 85.8852 93.094 88.2568 96 83L91 85C92.1495 81.0343 93.939 79.6332 98 79L97 87L103 84C105.496 95.5908 114.898 79.2234 117 77C115.398 83.0705 114.542 86.7551 122 87L125 79L124 87C130.048 82.396 126.292 76.584 120 76L119 85L118 85L119 76C112.841 76.3381 110.338 78.8411 110 85L109 85L110 76L105 85L106 76L101 76L101 69M119 69L119 75L120 75L121 69L119 69M43 70L38 91L42 81C45.8087 83.4309 49.5471 94.1093 54 88C46.2651 85.6519 50.4825 77.9349 51 72L46 81L46 70L43 70z"/>
<path style="fill:#ffffff; stroke:none;" d="M80 70L78 77L82 70L80 70z"/>
<path style="fill:#000000; stroke:none;" d="M59 75L59 85L56 84L58 76C52.2293 77.6391 51.0662 81.3907 51 87L60 88L64 79L63 87L65 87C65.9012 79.8626 66.2139 77.4076 59 75M128 87L133 86L129 92L128 89L126 89C125.933 93.1776 130.127 95.4423 133.258 91.6813C135.344 89.1747 135.553 84.1613 135.656 81.0193C135.96 71.75 128.129 81.6559 128 87z"/>
<path style="fill:#ffffff; stroke:none;" d="M99 84L104 78C100.089 78.6517 99.3002 80.1356 99 84M55 79L52 84L55 79M85 79L82 84L85 79M129 85L134 79L129 85M73 80L73 86L74 86L75 80L73 80z"/>
</svg>
