<?xml version="1.0" encoding="UTF-8" standalone="yes"?>
<!-- Created with sK1/UniConvertor (http://sk1project.org/) -->
<svg xmlns="http://www.w3.org/2000/svg" xmlns:xlink="http://www.w3.org/1999/xlink"
  width="201pt" height="100pt" viewBox="0 0 201 100"
  fill-rule="evenodd">
<g>
<g>
<path style="stroke:none; fill:#000000" d="M 167 9.7C 157.8 10.5 147.8 12.4 140.5 14.7C 130 18 110.6 28 104.4 33.4C 101.7 35.7 97.4 39.1 94.8 40.8C 88 45.5 86 49.3 86 57.6L 86.1 64.5L 88.5 59.9C 91.9 53.3 97.6 51 110.2 51C 116.6 51 120.2 50.6 121.5 49.6C 123.2 48.4 122.7 48.1 116.2 47C 110.5 46.1 108.6 45.3 107 43.3C 105.9 41.9 105 40.2 105 39.5C 105 38.8 107.6 35.8 110.8 32.9C 123.5 21.2 149.5 13.3 181.3 11.4C 187.8 11 193.3 10.3 193.6 9.9C 194.1 9.1 174.8 8.89999 167 9.7z"/>
<path style="stroke:none; fill:#000000" d="M 26.3 28.3C 24.2 36.9 24.2 40 26.2 40C 26.8 40 26.9 39.3 26.6 38.4C 26.2 37.5 26.7 33.9 27.6 30.4C 28.4 26.9 29 23 28.8 21.8C 28.6 20.5 27.5 23.3 26.3 28.3z"/>
<path style="stroke:none; fill:#000000" d="M 7.3 23.8C 4.7 24.2 4.3 25.5 6.5 26.4C 8.5 27.1 7.3 30 4.9 30C 3.9 30 3 30.4 3 31C 3 31.5 3.6 32 4.4 32C 5.5 32 5.7 33 5.3 36C 4.8 39.3 5 40 6.4 40C 7.3 40 8 39.6 8 39.1C 8 38.6 8.3 37.3 8.6 36.3C 9.2 34.6 9.2 34.6 7.8 36.4C 6.4 38.2 6.3 38.1 6.8 35.2C 7.1 32.6 7.8 32 11.5 31.1C 17.1 29.7 18 28.4 12.9 28.8C 10.7 29 9 28.8 9 28.2C 9 26.8 11.5 26 15.6 26C 17.5 26 19 25.6 19 25.1C 19 24.1 11.1 23.3 7.3 23.8z"/>
<path style="stroke:none; fill:#000000" d="M 18.5 31.4C 16.9 33 16 35 16 37C 16 40 17.3 41 18.6 38.9C 19 38.1 19.5 38.1 20.3 38.9C 22.1 40.7 23.1 40.1 22.4 37.6C 22.1 36.3 22.3 34.3 22.9 33.2C 23.7 31.7 23.6 30.9 22.5 30C 21.4 29.1 20.6 29.3 18.5 31.4zM 19.5 35.7C 18.3 37.4 17.5 38 17.2 37.2C 16.8 35.8 20 31.6 20.8 32.5C 21.1 32.7 20.5 34.2 19.5 35.7z"/>
<path style="stroke:none; fill:#000000" d="M 30.1 31.1C 27.6 33.8 27.4 37.2 29.6 39C 30.9 40.1 31.5 40 33.3 38.1L 35.5 35.8L 33.3 36.9C 30.4 38.4 30 38.3 30 36.1C 30 33.5 32.7 30.9 34.7 31.7C 35.8 32.1 36.1 31.9 35.8 30.9C 35 28.6 32.3 28.7 30.1 31.1z"/>
<path style="stroke:none; fill:#000000" d="M 38 31.7C 35.6 34.7 35.7 37.8 38.2 39.4C 39.5 40.2 40.5 39.9 42.5 38C 45.2 35.5 45.8 32.2 43.8 30.2C 41.9 28.3 40.3 28.8 38 31.7zM 43 33.5C 43 35.3 42.3 36.1 40.5 36.6C 37 37.5 36.6 36.8 39.1 33.7C 41.7 30.3 43 30.3 43 33.5z"/>
<path style="stroke:none; fill:#000000" d="M 46.3 34.6C 46 40.5 47.4 41.2 48.4 35.5C 49.4 30.3 51.4 29.7 50.7 34.8C 50.4 37.1 50.5 39 51 39C 53 39 53.8 30.6 52 29.5C 51.4 29.1 50.3 29.4 49.5 30C 48.4 30.9 48 30.9 48 30.1C 48 29.5 47.7 29 47.3 29C 46.8 29 46.4 31.5 46.3 34.6z"/>
<path style="stroke:none; fill:#000000" d="M 153.8 37.2C 156.9 40.6 156.6 41 151.8 41C 144.7 41.1 134.7 42.8 133.8 44.2C 132 46.9 133.7 55.1 137.8 63.3C 141.8 71.3 149.3 80.2 156.3 85.2C 158.9 87 158.4 86.1 153.2 78.4C 147 69.3 142 57.9 142 53C 142 44.4 156.3 39.6 170.5 43.4C 186.1 47.5 191.8 56 185.4 65.6C 184 67.7 179.9 72.3 176.2 75.8L 169.5 82L 176.1 78C 190.8 69 196 60.6 192.6 51.5C 189 42.2 178.3 37 159.5 35.4L 151.5 34.7L 153.8 37.2z"/>
<path style="stroke:none; fill:#000000" d="M 40.1 51.4C 38.8 60.3 37.7 63 36.5 61C 36.1 60.4 36.4 58.5 37 56.9C 38 54.5 38 53.6 37.1 52.7C 36.1 51.8 35.2 52.2 32.9 54.8C 31.3 56.6 30 59 30 60.1C 30 61.7 29.6 62 28.3 61.5C 27.3 61.2 25.3 60.6 23.8 60.3C 22.2 60 21 59.7 21 59.6C 21 59.6 21.7 57.7 22.5 55.5C 24 51.3 24.5 47.2 23.4 48.3C 22.6 49 19 58.8 18.7 60.9C 18.5 62.5 31.8 63.4 33.8 61.8C 34.6 61.1 35 61.1 35 61.9C 35 63.6 38.8 63.2 39.9 61.3C 40.7 59.8 41 59.8 42.5 61C 45.9 63.9 55 62.3 55 58.9C 55 58.4 54 58.6 52.8 59.4C 50.2 61.2 48 61.5 48 60C 48 59.4 48.8 59 49.9 59C 53.5 59 55.5 53.3 52.3 52.3C 50.5 51.7 47 55.7 47 58.5C 47 61.3 45.8 61.7 44.1 59.6C 43.2 58.6 43.3 58 44.5 57C 45.3 56.3 46 54.9 46 53.8C 46 52.1 45.7 52.3 43.4 54.7C 41.3 57 41 57.1 41.4 55.5C 42.7 50.4 43.1 44.2 42.3 43.7C 41.7 43.3 40.8 46.7 40.1 51.4zM 52 56C 51.2 56.5 50.3 56.7 50.1 56.4C 49.8 56.1 50.2 55.5 51 55C 51.8 54.5 52.7 54.3 52.9 54.6C 53.2 54.9 52.8 55.5 52 56zM 36 55.8C 36 57.1 31.9 61.2 31.2 60.6C 30.9 60.2 31.7 58.9 33 57.5C 35.5 54.8 36 54.5 36 55.8z"/>
<path style="stroke:none; fill:#000000" d="M 73.5 47.2C 73.1 49.1 71.4 51.7 69.4 53.3C 67.5 54.9 66 56.7 66 57.5C 66 58.2 65.3 59.3 64.5 60C 62.7 61.5 62.6 60.4 64.1 56.1C 64.7 54.3 65 52.6 64.6 52.3C 63.6 51.3 60.9 59 61.5 61.1C 62.2 63.2 63.5 63.6 64.6 61.9C 65 61.1 65.5 61.2 66 62.1C 66.7 63.1 67.2 63.1 68.5 62C 69.5 61.2 70.4 61 70.8 61.6C 72.2 63.5 78.4 63 80.7 60.8C 84 57.7 83.5 56.6 80 59.2C 77.7 60.9 76.7 61.1 75.8 60.2C 74.9 59.3 75.1 59 76.7 59C 77.9 59 79.6 58 80.4 56.8C 81.8 54.8 81.8 54.4 80.4 53C 79 51.7 78.6 51.8 76.4 54.3C 75.1 55.8 74 58 74 59.1C 74 60.1 73.6 61 73 61C 71.6 61 71.7 59.4 74 51.5C 76.3 43.3 76.2 44 75.1 44C 74.6 44 73.8 45.5 73.5 47.2zM 79.5 55.9C 79.2 56.5 78.4 57 77.8 57C 77.2 57 77.2 56.4 78 55.5C 79.4 53.8 80.6 54.2 79.5 55.9zM 71 55.9C 71 56.4 70.1 57.8 69 59.1C 66.9 61.7 66.3 60.1 68.2 57C 69.5 54.9 71 54.3 71 55.9z"/>
<path style="stroke:none; fill:#000000" d="M 65 45.7C 65 46.3 64.7 47.5 64.4 48.4C 64.1 49.3 64.2 50 64.8 50C 66.3 50 67.2 46.8 66 45.6C 65.3 44.9 65 44.9 65 45.7z"/>
<path style="stroke:none; fill:#000000" d="M 57.1 54.7C 55.1 57.1 55.1 57.5 56.5 59.7C 57.9 61.8 57.9 62 56 62C 54.9 62 54 62.4 54 63C 54 64.2 57 64.3 59 63C 60.2 62.2 60.2 61.9 58.7 60.2C 56.3 57.6 56.6 56.1 59.6 55C 61 54.4 61.8 53.6 61.5 53C 60.5 51.4 59.3 51.8 57.1 54.7z"/>
<path style="stroke:none; fill:#000000" d="M 77.6 71.2C 76.8 73 75.9 75.3 75.6 76.4C 75.2 77.4 74.4 78 73.6 77.7C 72.7 77.3 71.9 78.5 71.1 81.1C 69.9 85.2 67.3 86.7 68.4 82.7C 70.3 75.6 70.3 75.5 69 76.7C 68.3 77.3 67.5 80 67.2 82.6C 66.7 87.1 66.8 87.3 69 86.7C 71.7 86 74 88 74 91C 74 95.4 75.8 91.8 76.4 86C 77 80.8 77.4 80 79.2 80C 80.8 80 81.1 80.5 80.7 82.3C 79.9 85.3 81.5 87.9 83.1 86.3C 84 85.4 84.7 85.3 85.7 86.2C 87.4 87.6 88.8 86.4 87.2 84.8C 86.4 84 86.5 83 87.5 81C 88.7 78.7 88.7 78 87.6 77.1C 86.7 76.3 85.8 76.4 84.4 77.5C 83.4 78.3 81.5 79 80.3 79C 78.1 79 78.1 79 80.5 76.5C 83.7 73.4 84 68 81 68C 79.7 68 78.5 69.1 77.6 71.2zM 82 71.8C 82 72.9 81.1 74.5 80 75.5C 78.1 77.3 78 77.2 78 75.2C 78 72.1 79.1 70 80.6 70C 81.4 70 82 70.8 82 71.8zM 84.6 82.5C 83.7 83.9 82.5 85 81.9 85C 80.8 85 81.5 83.5 83.8 80.7C 86 78.2 86.6 79.5 84.6 82.5zM 75 82.4C 75 83.8 74.6 85.2 74 85.5C 73.4 85.9 73 84.8 73 83.1C 73 81.4 73.5 80 74 80C 74.6 80 75 81.1 75 82.4z"/>
<path style="stroke:none; fill:#000000" d="M 119.8 69.6C 119.3 70 119 71.5 119 72.9C 119.1 75.2 119.2 75.3 120.1 73.7C 121.2 71.8 121 68.4 119.8 69.6z"/>
<path style="stroke:none; fill:#000000" d="M 42.6 75.2C 39.8 85.4 39.1 88.4 39.5 88.8C 39.7 89 40.4 87.4 41.1 85.1C 42.2 81.3 44 79.5 44 82.1C 44 82.7 44.7 83 45.5 82.6C 46.6 82.2 47 82.7 47 84.3C 47 89.2 52.5 92.1 53.8 88C 54.2 86.8 54.1 86.7 52.8 87.8C 50.3 89.8 48.7 86.9 49.3 81.2C 49.5 78.6 50.1 75.7 50.5 74.7C 50.9 73.8 50.8 73 50.3 73C 49.7 73 48.5 74.9 47.6 77.2C 46.1 80.9 45.7 81.2 45.1 79.5C 44.6 78.4 44.5 75.8 44.8 73.7C 45.5 68.3 44.3 69.1 42.6 75.2z"/>
<path style="stroke:none; fill:#000000" d="M 100.1 73C 99.3 75.4 98.5 76 96.1 76C 91 76 87.3 81.8 89.9 85.9C 91 87.6 94.6 86.5 95.5 84.2C 96 82.8 95.9 82.7 94.9 83.7C 93 85.6 91 85.3 91 83.2C 91 80.5 92.5 78.9 95.2 78.6C 97.6 78.3 97.7 78.5 97.3 82C 97 84.3 97.2 86 97.9 86.5C 99.7 87.6 102 85.1 101.9 82.1C 101.8 80.1 101.7 79.9 101.3 81.5C 100.4 85.1 99 85.6 99 82.3C 99 79.5 100.4 78 102.9 78C 103.3 78 103.6 79.9 103.6 82.2C 103.5 85.9 103.8 86.5 105.5 86.3C 106.6 86.2 107.8 86.6 108.1 87.2C 109.1 88.8 110.8 87.3 111.5 84.1C 112.1 81.1 115.4 77 117.1 77C 117.7 77 117.7 77.7 117 78.9C 116.5 80 116 82.2 116 83.8C 116 86.4 116.4 86.8 118.5 86.6C 120.6 86.5 121.3 85.8 122.1 82.8C 123.5 77.3 125.5 76.6 124.6 81.8C 123.9 86.2 125.3 87.7 126.4 83.7C 127.9 78.1 126.4 74.6 123.5 77C 122.7 77.7 122 77.8 122 77.3C 122 76 114.3 75.8 113.5 77C 113.1 77.6 112.5 77.8 112 77.5C 111.5 77.2 110.8 78.6 110.5 80.7C 109.5 86.6 109 87 109.3 81.7C 109.6 75.9 108.7 75.7 107.1 81C 106.5 83.2 105.5 85 104.9 85C 104.3 85 104.1 84.2 104.4 83.2C 106 78 106.2 75.7 105.2 76.4C 104.7 76.7 103.4 76.7 102.5 76.4C 101.3 75.9 101.1 75 101.5 72.9C 102.4 69.1 101.5 69.2 100.1 73zM 119.4 83.1C 116.9 85.8 116.6 84.8 118.6 80.4C 120.2 76.9 120.4 76.7 120.8 78.8C 121 80.1 120.4 82 119.4 83.1z"/>
<path style="stroke:none; fill:#000000" d="M 53.7 78C 52.4 79.1 50.9 81.2 50.6 82.6C 49.7 86 51.3 87.8 53.5 86C 54.5 85.2 55 85.1 55 85.9C 55 86.5 56.1 87 57.5 87C 59.5 87 60.1 86.3 61 83C 62.5 77.4 64.5 76.5 63.6 81.8C 62.9 86.2 64.3 87.7 65.4 83.7C 66.9 78.1 65.4 74.6 62.5 77C 61.4 77.9 61 77.9 61 77.1C 61 76.5 60.5 76 59.9 76C 59.4 76 59.2 76.5 59.5 77.1C 60.7 78.9 59 85 57.3 85C 56.3 85 56 84.4 56.4 83.4C 58.9 77 57.8 74.8 53.7 78zM 54.6 82.5C 53.7 83.9 52.5 85 51.9 85C 50.8 85 51.5 83.5 53.8 80.7C 56 78.2 56.6 79.5 54.6 82.5z"/>
<path style="stroke:none; fill:#000000" d="M 130.5 78.4C 127.1 81.8 127.3 86.6 130.8 86.3C 133.4 86 133.7 88.1 131.4 90.4C 129.4 92.5 128.4 92.4 127 90.3C 126.1 88.7 126 88.8 126.2 91C 126.6 94 129.6 94.8 132.5 92.7C 133.9 91.6 134.5 89.7 134.8 84.5C 135.3 76.3 134.2 74.7 130.5 78.4zM 134 80.2C 134 81.6 131 85 129.8 85C 128.5 85 128.9 82.8 130.7 80.8C 132.5 78.7 134 78.5 134 80.2z"/>
</g>
</g>
</svg>