<?xml version="1.0" standalone="yes"?>
<svg xmlns="http://www.w3.org/2000/svg" width="201" height="100">
<path style="fill:#fbfbf9; stroke:none;" d="M0 0L0 100L201 100L201 0L0 0z"/>
<path style="fill:#28373d; stroke:none;" d="M86 64C88.4471 61.0527 89.8799 57.4134 93.1049 55.1327C101.867 48.9367 112.266 52.3176 122 50L122 48C117.125 46.826 109.526 47.172 106.89 41.9421C105.3 38.7857 107.933 36.1481 110.023 34.0401C114.583 29.441 120.205 26.5167 126 23.7809C139.699 17.3135 154.951 13.6752 170 12.1705C178.142 11.3565 187.139 12.3236 195 10C187.123 6.69455 173.377 8.63027 165 9.71836C141.78 12.7343 120.544 20.0555 102 34.8009C97.0514 38.7358 90.3895 42.166 87.4568 48.0008C85.0843 52.7211 86 58.8757 86 64M28 20C27.0167 26.6829 23.1543 33.2707 25 40C29.2702 39.5053 32.4835 39.8353 35 36L30 38C30.7703 34.2338 31.9502 32.0826 36 32C31.8468 25.8003 28.1687 34.0205 27 38C26.0944 31.8999 30.4864 25.9812 28 20M5 24C5.8993 26.1236 5.87636 26.1007 8 27C6.24324 28.7334 5.35805 29.3409 3 30C3.98024 31.7833 3.90759 31.5943 6 32C5.21903 35.3127 5.05819 37.7236 6 41C7.88424 39.0197 8.46928 37.6904 9 35C7.91888 36.458 7.56395 37.248 7 39C6.77374 32.5239 12.0895 31.5916 17 29C14.3538 28.185 11.7741 28.7874 9 29C12.0243 26.37 15.0639 26.0843 19 26L19 24C14.3062 23.9876 9.68599 23.609 5 24M45 28C46.6905 32.1937 46.1861 35.5864 46 40C48.1822 37.3476 48.9532 34.2656 50 31C50.6147 33.8245 50.3437 36.1266 50 39C53.5399 36.499 53.1318 32.8662 52 29C49.5389 28.9509 47.3994 28.5656 45 28M16 40C17.58 39.3164 17.7772 39.1952 19 38C20.5167 38.9573 21.3385 39.3872 23 40C22.5097 36.3539 23.0941 33.5338 24 30L23 29C17.7002 30.8451 15.242 34.3857 16 40M40.0895 30.1759C35.9248 31.8747 35.0849 40.6718 40.9105 39.1096C45.9449 37.7595 45.5222 27.9599 40.0895 30.1759z"/>
<path style="fill:#fbfbf9; stroke:none;" d="M38 37C41.1266 36.0658 42.0658 35.1266 43 32C39.8734 32.9342 38.9342 33.8734 38 37M19 33L17 37C19.133 35.8446 19.7824 35.118 21 33L19 33z"/>
<path style="fill:#28373d; stroke:none;" d="M152 35L156 41L134 42C130.624 60.1866 143.69 78.1927 159 87C154.687 78.329 148.066 71.2545 144.695 62C143.599 58.9909 141.894 55.269 142.527 52.0008C143.662 46.1459 149.871 43.8339 155 42.8079C165.217 40.764 185.395 44.4175 187.562 57C189.32 67.2006 175.016 74.8988 170 82C174.929 79.3762 179.663 76.437 183.999 72.9051C186.539 70.8368 189.205 68.7382 191.005 65.9606C196.857 56.9321 192.63 46.3547 184 40.9946C175.217 35.5397 162.047 35.0011 152 35M41 43C40.7496 48.8167 40.2817 56.823 36 61C36.8519 57.7519 37.6505 55.3155 37 52C32.4371 54.1533 30.3801 56.9582 30 62C21.7192 59.5301 23.4133 55.1922 24 48L22 48C21.2475 53.0957 18.3677 57.8805 19 63C23.9807 62.0281 29.8335 64.3151 34 61C36.7411 62.8348 38.1768 62.8257 40 60C46.1299 63.2963 50.5368 63.6087 56 59L57 62C54.636 62.4825 54.4825 62.636 54 65C57.7607 64.0935 61.8941 63.2883 65 61C67.2535 62.4457 67.8297 62.5672 70 61C75.1626 64.3714 80.8926 62.8596 83 57C80.2455 58.5828 78.1654 59.7133 75 60C76.7717 59.1928 79.1473 58.4656 80.2531 56.716C81.7535 54.3421 79.525 52.3328 77.2076 53.7515C74.7546 55.2532 73.797 58.8491 72 61L76 43C73.9326 45.3424 73.158 48.2189 71.3017 50.7145C68.6474 54.2829 65.8298 56.8425 64 61C63.7915 57.8907 64.5537 55.086 65 52C63.8048 53.2228 63.6836 53.42 63 55L61 52C55.8091 53.9598 53.4455 59.1435 48 61C49.3353 59.8258 51.2845 58.8422 52.3958 57.4552C53.9441 55.5229 53.2532 51.7609 50.1551 53.1759C47.2379 54.5084 46.5045 58.2165 46 61C44.8137 59.8137 44.4162 59.4721 43 59C44.7753 56.5582 45.5679 54.9775 46 52L41 57C42.3285 52.2725 42.9865 47.9119 43 43L41 43M65 45L64 51C66.2209 49.3253 66.5618 47.7434 67 45L65 45z"/>
<path style="fill:#fbfbf9; stroke:none;" d="M52 54C50.9644 55.1863 50.6614 55.6036 50 57C51.8487 56.0326 52.7225 55.86 52 54M79 54C77.8137 55.1863 77.4721 55.5838 77 57C78.8487 56.0326 79.7225 55.86 79 54M35 55C33.2419 57.0122 32.084 58.5813 31 61C33.2791 59.2085 34.8306 57.9373 35 55M57 56C57.8125 58.7817 58.4527 59.6274 61 61L62 55L57 56M70 55C68.4269 57.1149 67.6482 58.4697 67 61C69.0149 59.0924 70.2505 57.7921 70 55z"/>
<path style="fill:#28373d; stroke:none;" d="M75 78C73.5215 77.0143 73.7968 77 72 77C71.2156 80.2638 70.3394 82.5821 68 85L70 76C67.1452 79.2828 67.0356 82.7623 67 87C71.4885 87.0356 73.3131 88.5278 74 93C76.7857 89.3791 76.9074 84.4855 77 80L81 80C80.4083 82.6883 80.3249 84.3412 81 87C82.58 86.3164 82.7772 86.1952 84 85C85.5944 86.2965 86.0183 86.5354 88 87C87.7091 84.8483 88.7616 79.3089 87.1883 77.8272C85.4571 76.1969 80.965 78.5629 79 79C81.8799 75.3922 82.8888 72.5986 83 68C77.5111 68.8934 76.1878 73.0023 75 78M120 69C119.356 71.1059 119.094 72.7951 119 75C120.495 72.8149 120.889 71.508 120 69M44 70C41.7479 75.9696 39.9289 82.6868 39 89C41.0197 86.4633 41.6703 84.2182 42 81C43.7227 81.9341 45.1062 82.5354 47 83C47.3646 87.7788 49.0486 90.1033 54 89L54 85C60.2931 88.1915 61.2969 83.3093 63 78C63.6147 80.8245 63.3437 83.1266 63 86C66.3526 83.4478 66.09 79.7947 65 76C63.42 76.6836 63.2228 76.8048 62 78C60.8137 76.9644 60.3964 76.6614 59 76C59.4912 79.0833 59.2191 81.8958 59 85L57 85C57.2018 83.7197 57.6107 82.2726 57.7122 80.9784C58.3242 73.1707 45.5215 82.0899 53 87C46.5144 85.6905 49.9551 77.5713 51 73C48.1395 74.9509 47.2416 77.8145 46 81C44.9251 77.3633 45.4526 73.4617 44 70z"/>
<path style="fill:#fbfbf9; stroke:none;" d="M78 77C80.6013 74.8469 81.4928 73.344 82 70C78.8321 71.7435 78.2688 73.435 78 77z"/>
<path style="fill:#28373d; stroke:none;" d="M101 70C100.137 71.8988 99.4278 73.7799 97.6065 74.9923C94.7732 76.8783 91.2583 76.4406 89.7469 80.108C87.3108 86.019 92.9081 87.7436 96 83L91 85C91.3251 83.4108 92.8752 77.4545 95.6983 79.9707C97.2669 81.3687 97.4087 85.0781 98 87C101.168 85.2565 101.731 83.565 102 80C101.076 81.6481 100.551 83.1749 100 85C99.4511 81.1845 100.595 79.7189 104 78C103.219 81.3127 103.058 83.7236 104 87L108 86C108.98 87.7833 108.908 87.5943 111 88C111.796 82.9875 113.912 79.968 118 77C115.86 80.5088 115.222 82.9462 116 87L121 87L124 78C124.615 80.8245 124.344 83.1266 124 86C127.353 83.4478 127.09 79.7947 126 76C124.42 76.6836 124.223 76.8048 123 78C119.103 75.3025 115.423 76.5736 111 77C110.276 80.0395 110.026 82.8783 110 86C109.058 82.7236 109.219 80.3127 110 77C107.32 79.0117 106.747 81.7901 106 85C105.198 81.829 105.599 79.2316 106 76L101 76C101.529 73.647 101.811 72.2393 101 70M133 86C131.914 89.0587 130.808 90.3747 128 92L127 89C125.355 94.0205 131.348 94.6881 133.682 90.7716C136.066 86.7725 135 80.4669 135 76C132.566 76.8373 130.342 77.6754 129.031 80.108C126.925 84.0141 129.175 86.5845 133 86z"/>
<path style="fill:#fbfbf9; stroke:none;" d="M120 77C118.818 79.4297 118.27 81.3127 118 84C120.134 81.7245 121.042 80.0227 120 77M55 79C53.3612 80.9807 52.1496 82.7112 51 85C53.7501 83.5633 55.4404 82.2211 55 79M85 79C83.3612 80.9806 82.1496 82.7112 81 85C83.7501 83.5633 85.4404 82.2211 85 79M129 85C132.012 83.4953 133.075 82.2404 134 79C131.082 80.5169 130.078 81.8926 129 85M73 80L73 86C74.416 83.9584 74.7451 82.489 75 80L73 80z"/>
</svg>
