<?xml version="1.0" standalone="yes"?>
<svg xmlns="http://www.w3.org/2000/svg" width="201" height="100">
<path style="fill:#fcfcfc; stroke:none;" d="M0 0L0 100L201 100L201 0L0 0z"/>
<path style="fill:#d0c756; stroke:none;" d="M162 9C164.332 9.98454 166.457 9.98125 169 10C166.668 9.01547 164.543 9.01875 162 9z"/>
<path style="fill:#28373d; stroke:none;" d="M86 64C88.4673 61.0261 89.865 57.2818 93.1049 54.9691C101.737 48.8074 112.366 52.2938 122 50L122 48C117.125 46.826 109.526 47.172 106.89 41.9421C105.519 39.2214 107.286 36.992 109.074 35.0147C113.203 30.4472 118.438 26.8829 124 24.3094C138.327 17.6802 153.43 14.3117 169 12.2894C177.187 11.226 186.05 12.35 194 10C186.293 6.7658 174.159 9.01517 166 9.83102C142.043 12.2264 119.692 20.2793 101 35.8549C96.1101 39.9295 89.7546 42.8548 87.0895 49.0008C85.1475 53.4793 86 59.2242 86 64z"/>
<path style="fill:#d0c756; stroke:none;" d="M194 9L195 10L194 9M156 10C157.248 10.6848 157.548 10.7488 159 11C157.752 10.3152 157.452 10.2512 156 10M193 10L194 11L193 10M151 11L152 12L151 11M181 11C183.052 11.8743 184.747 11.9528 187 12C184.948 11.1258 183.253 11.0472 181 11M146 12L147 13L146 12M167 12C168.506 12.683 169.315 12.8259 171 13C169.494 12.317 168.685 12.1741 167 12M143 13L144 14L143 13M140 14L141 15L140 14M154 14L155 15L154 14M137 15L138 16L137 15M149 15C150.248 15.6848 150.548 15.7488 152 16C150.752 15.3152 150.452 15.2512 149 15M134 16L135 17L134 16M145 16L146 17L145 16M131 17L132 18L131 17M141.667 17.3333C141.222 17.7777 142.278 17.7223 142.333 17.6667C142.778 17.2222 141.722 17.2778 141.667 17.3333M129 18L130 19L129 18M138.667 18.3333C138.222 18.7777 139.278 18.7222 139.333 18.6667C139.778 18.2222 138.722 18.2778 138.667 18.3333M127 19L128 20L127 19M136 19L137 20L136 19M28 20L29 24C29.553 21.9922 29.303 21.6676 28 20M125 20L126 21L125 20M133 20L134 21L133 20z"/>
<path style="fill:#28373d; stroke:none;" d="M28 21C26.9156 26.2397 21.6386 36.4215 27 40C26.0977 33.6479 30.387 26.8545 28 21z"/>
<path style="fill:#d0c756; stroke:none;" d="M123 21L124 22L123 21M130 21L131 22L130 21M121 22L122 23L121 22M128 22L129 23L128 22z"/>
<path style="fill:#28373d; stroke:none;" d="M5 24C5.90152 25.9225 6.07616 25.9988 8 27C6.24324 28.7334 5.35805 29.3409 3 30C3.98024 31.7833 3.90759 31.5943 6 32C5.35214 34.7092 5.05834 37.2155 5 40C6.79681 40 6.52149 39.9857 8 39C5.54505 37.227 6.9162 35.1843 7 32C10.1613 31.7238 12.979 30.9585 16 30C13.6685 29.0155 11.5433 29.0187 9 29C11.9673 25.9699 14.8863 26.0145 19 26L19 24C14.3062 23.9876 9.68599 23.609 5 24z"/>
<path style="fill:#d0c756; stroke:none;" d="M10 23L11 24L10 23M27 23L28 24L27 23M119 23L120 24L119 23M125.667 23.3333C125.222 23.7778 126.278 23.7222 126.333 23.6667C126.778 23.2222 125.722 23.2778 125.667 23.3333M117 24L118 25L117 24M123 24L124 25L123 24M19 25L20 26L19 25M115 25L116 26L115 25M121 25L122 26L121 25M6 26L7 27L6 26M10 26C11.5061 26.683 12.3148 26.8259 14 27C12.494 26.317 11.6852 26.1741 10 26M17 26L18 27L17 26M26.3333 26.6667C26.2778 26.7222 26.2222 27.7778 26.6667 27.3333C26.7222 27.2778 26.7778 26.2222 26.3333 26.6667M113 26L114 27L113 26M119 26L120 27L119 26M7 27L8 28L7 27M9 27L10 28L9 27M28 27L29 28L28 27M112 27L113 28L112 27M117 27L118 28L117 27M14 28C15.506 28.683 16.3148 28.8259 18 29C16.494 28.317 15.6852 28.1741 14 28M45.6667 28.3333C45.2222 28.7778 46.2778 28.7222 46.3333 28.6667C46.7778 28.2222 45.7222 28.2778 45.6667 28.3333M110 28L111 29L110 28M116 28L117 29L116 28M3 29C4.50604 29.683 5.31479 29.8259 7 30C5.49395 29.317 4.68521 29.1741 3 29M20 29L21 30L20 29z"/>
<path style="fill:#28373d; stroke:none;" d="M16 37L21 33C19.2328 35.3084 17.3854 37.456 16 40C17.58 39.3164 17.7772 39.1952 19 38C20.5167 38.9573 21.3385 39.3872 23 40C22.6774 37.614 23.6367 33.4857 22.6019 31.4267C20.2123 26.6721 16.3585 35.2396 16 37z"/>
<path style="fill:#d0c756; stroke:none;" d="M22 29L23 30L22 29M31 29L32 30L31 29z"/>
<path style="fill:#28373d; stroke:none;" d="M35 36L30 38C30.7703 34.2338 31.9502 32.0826 36 32C30.1246 23.1897 24.5299 42.7346 33.4877 37.7855L35 36z"/>
<path style="fill:#d0c756; stroke:none;" d="M39 29C37.8137 30.1863 37.4721 30.5838 37 32C38.5481 30.7383 38.808 30.8061 39 29z"/>
<path style="fill:#28373d; stroke:none;" d="M40.0895 30.1759C35.8053 31.9235 35.3409 41.0521 40.9606 38.8241C45.4062 37.0616 45.5998 27.9283 40.0895 30.1759M46 29C46.7321 32.7515 46.1601 36.2135 46 40C48.1822 37.3476 48.9532 34.2656 50 31C50.7371 33.9032 50.5286 36.0493 50 39C53.5399 36.499 53.1318 32.8662 52 29C50.42 29.6836 50.2228 29.8048 49 31C47.8137 29.9644 47.3964 29.6613 46 29z"/>
<path style="fill:#d0c756; stroke:none;" d="M2.33333 30.6667C2.27776 30.7222 2.22224 31.7778 2.66667 31.3333C2.72221 31.2778 2.77778 30.2222 2.33333 30.6667M14 30L15 31L14 30M23 30L24 31L23 30M25 30L26 31L25 30M27.3333 30.6667C27.2778 30.7222 27.2222 31.7778 27.6667 31.3333C27.7222 31.2778 27.7778 30.2222 27.3333 30.6667M48 30L49 31L48 30M107 30L108 31L107 30M113 30L114 31L113 30M11 31L12 32L11 31M29 31L30 32L29 31M33 31L34 32L33 31M41.6667 31.3333C41.2222 31.7778 42.2778 31.7222 42.3333 31.6667C42.7778 31.2222 41.7222 31.2778 41.6667 31.3333M50 31L51 32L50 31M106 31L107 32L106 31M3 32C4.13935 33.0154 4.61158 33.3087 6 34C5.01975 32.2167 5.09241 32.4057 3 32M7 32L8 33L7 32M23 32L24 33L23 32M31 32L32 33L31 32M34.6667 32.3333C34.2222 32.7778 35.2778 32.7222 35.3333 32.6667C35.7778 32.2222 34.7222 32.2778 34.6667 32.3333z"/>
<path style="fill:#fcfcfc; stroke:none;" d="M38 37C41.1266 36.0658 42.0658 35.1266 43 32C39.9497 32.9484 39.0877 34.0029 38 37z"/>
<path style="fill:#d0c756; stroke:none;" d="M49 32L50 33L49 32M119 40C130.722 45.6412 143.772 41.0013 156 41C150.359 29.0124 125.317 27.8418 119 40M16 33L17 34L16 33M19 33C18.0427 34.5167 17.6128 35.3385 17 37L16 35C15.317 36.506 15.1741 37.3148 15 39C17.4897 37.608 19.9831 36.1097 19 33z"/>
<path style="fill:#fcfcfc; stroke:none;" d="M20 33L21 34L20 33z"/>
<path style="fill:#d0c756; stroke:none;" d="M36 33L37 34L36 33z"/>
<path style="fill:#fcfcfc; stroke:none;" d="M19 34L20 35L19 34z"/>
<path style="fill:#d0c756; stroke:none;" d="M22 34L23 35L22 34M24.3333 34.6667C24.2778 34.7222 24.2222 35.7778 24.6667 35.3333C24.7222 35.2778 24.7778 34.2222 24.3333 34.6667M26 34C26.4176 36.6894 26.7173 37.5537 29 39L26 34M30 34L31 35L30 34M38 34L39 35L38 34M46 34L47 35L46 34M102 34L103 35L102 34z"/>
<path style="fill:#28373d; stroke:none;" d="M8.33333 35.6667C8.2778 35.7222 8.22221 36.7778 8.66667 36.3333C8.72224 36.2778 8.77777 35.2222 8.33333 35.6667z"/>
<path style="fill:#d0c756; stroke:none;" d="M42 35L43 36L42 35M48 35L49 36L48 35M50.3333 35.6667C50.2777 35.7223 50.2222 36.7778 50.6667 36.3333C50.7222 36.2778 50.7778 35.2222 50.3333 35.6667M101 35L102 36L101 35z"/>
<path style="fill:#fcfcfc; stroke:none;" d="M125 37L125 39C131.732 39 138.358 39.2331 145 38C140.688 32.0204 130.948 35.6742 125 37z"/>
<path style="fill:#28373d; stroke:none;" d="M152 35L156 41C150.383 41 145.5 41.6733 140.004 42.6798C138.054 43.0369 135.538 42.8834 134.179 44.6034C131.185 48.3942 133.83 55.2199 135.428 59C140.263 70.4369 148.127 80.7216 159 87C154.244 78.457 148.063 71.2459 144.576 62C143.4 58.8813 141.701 55.4225 142.474 52.0008C143.587 47.0681 148.536 44.2974 153 42.9051C163.241 39.7113 185.757 44.1266 187.678 57C189.238 67.4494 175.127 74.7817 170 82C174.924 79.3789 179.675 76.4495 183.996 72.9051C186.506 70.8462 189.031 68.7281 190.786 65.9606C196.453 57.0237 192.874 46.5214 183.999 41.2245C175.067 35.8933 162.16 35.028 152 35z"/>
<path style="fill:#d0c756; stroke:none;" d="M160 35C161.506 35.683 162.315 35.8259 164 36C162.494 35.317 161.685 35.1741 160 35M6 36L6 39L9 38C7.86064 36.9846 7.38843 36.6913 6 36M33 36L34 37L33 36M37 36L38 37L37 36M41 36L42 37L41 36M44 36L45 37L44 36M100 36L101 37L100 36M169.667 36.3333C169.222 36.7778 170.278 36.7222 170.333 36.6667C170.778 36.2222 169.722 36.2778 169.667 36.3333M30.6667 37.3333C30.2222 37.7778 31.2778 37.7222 31.3333 37.6667C31.7778 37.2222 30.7222 37.2778 30.6667 37.3333M34 37L35 38L34 37M43 37L44 38L43 37M52 37L53 38L52 37M99 37L100 38L99 37M173.667 37.3333C173.222 37.7778 174.278 37.7222 174.333 37.6667C174.778 37.2222 173.722 37.2778 173.667 37.3333M19 38L20 39L19 38M23.3333 38.6667C23.2778 38.7222 23.2222 39.7778 23.6667 39.3333C23.7222 39.2778 23.7778 38.2222 23.3333 38.6667M33 38L34 39L33 38M36 38L37 39L36 38M42 38L43 39L42 38M45.3333 38.6667C45.2778 38.7222 45.2222 39.7778 45.6667 39.3333C45.7222 39.2778 45.7778 38.2222 45.3333 38.6667M105 38L105 41C105.696 39.4463 105.696 39.5537 105 38M177.667 38.3333C177.222 38.7778 178.278 38.7222 178.333 38.6667C178.778 38.2223 177.722 38.2778 177.667 38.3333M7 39L8 40L7 39M18 39L19 40L18 39M20 39L21 40L20 39M29 39L30 40L29 39M37 39L38 40L37 39M41 39L42 40L41 39M47 39L48 40L47 39M50.6667 39.3333C50.2222 39.7778 51.2778 39.7222 51.3333 39.6667C51.7778 39.2222 50.7222 39.2778 50.6667 39.3333M96 39L97 40L96 39M180 39L181 40L180 39M6 40L7 41L6 40M94 40L95 41L94 40M93 41L94 42L93 41M184 41L185 42L184 41M41 42C41.5451 43.6352 41.3648 43.4549 43 44C42.4549 42.3648 42.6352 42.5451 41 42M106 42L107 43L106 42M153 42C154.248 42.6848 154.548 42.7488 156 43C154.752 42.3152 154.452 42.2512 153 42M162 42C164.052 42.8743 165.747 42.9528 168 43C165.948 42.1257 164.253 42.0472 162 42M186 42L187 43L186 42z"/>
<path style="fill:#28373d; stroke:none;" d="M41 43C40.7273 49.3524 39.8062 56.2673 37 62C36.7612 58.5549 37.6748 55.3938 37 52C32.5076 54.1469 30.5491 57.0698 30 62C26.9724 61.1983 24.1244 60.3113 21 60C22.3586 56.355 23.4774 52.8621 24 49C20.5036 51.8138 18.488 58.657 19 63C23.9807 62.0281 29.8335 64.3151 34 61C36.7411 62.8348 38.1768 62.8257 40 60C45.5134 62.9648 51.614 64.4483 55 58L58 62L54 62L54 64L60 63C58.2781 58.2107 58.2894 56.5717 62 53C56.3568 52.9141 53.3762 59.1673 48 61C51.3967 58.0131 54.1059 56.9634 53 52C48.4106 53.6506 47.2597 56.2693 47 61L43 59C44.7753 56.5582 45.5679 54.9775 46 52L41 57C42.0799 52.516 43.8513 46.9151 41 43z"/>
<path style="fill:#d0c756; stroke:none;" d="M75 43L76 44L75 43M151 43L152 44L151 43M169.667 43.3333C169.222 43.7778 170.278 43.7222 170.333 43.6667C170.778 43.2222 169.722 43.2778 169.667 43.3333M187 43L188 44L187 43z"/>
<path style="fill:#28373d; stroke:none;" d="M74 44C72.5097 50.8141 67.2611 55.6417 63 61L65 52C61.8105 55.3012 61.1415 58.5349 62 63C63.58 62.3164 63.7772 62.1952 65 61C67.4554 62.3411 68.3549 62.005 71 61L71 63C76.6204 62.647 80.335 62.5286 83 57C80.2455 58.5828 78.1654 59.7133 75 60C76.2581 59.4195 84.0855 55.1437 79.5887 53.3449C75.6204 51.7575 74.266 58.6137 74 61L72 61C72.7808 55.2019 74.6966 49.6856 76 44L74 44z"/>
<path style="fill:#d0c756; stroke:none;" d="M133 44L134 45L133 44M148 44L149 45L148 44M174 44L175 45L174 44M188 44L189 45L188 44z"/>
<path style="fill:#28373d; stroke:none;" d="M65 45L65 50C66.3456 47.8243 66.3808 47.1406 65 45z"/>
<path style="fill:#d0c756; stroke:none;" d="M66 45L67 46L66 45M109 45L110 46L109 45M146 45L147 46L146 45M189 45L190 46L189 45M40 46L40 49C40.6961 47.4463 40.6961 47.5537 40 46M73 46L74 47L73 46M75 46L76 47L75 46M88 46L89 47L88 46M113.667 46.3333C113.222 46.7777 114.278 46.7222 114.333 46.6667C114.778 46.2222 113.722 46.2778 113.667 46.3333M178 46L179 47L178 46M190 46L191 47L190 46M22 47L22 49L24 49L24 47L22 47M64 47C64.3067 49.1228 64.3821 49.686 66 51C65.4038 49.4399 64.9114 48.3766 64 47M87 47L88 48L87 47M120.667 47.3333C120.222 47.7777 121.278 47.7223 121.333 47.6667C121.778 47.2222 120.722 47.2778 120.667 47.3333M180 47L181 48L180 47M42 48L42 51C42.6961 49.4463 42.6961 49.5537 42 48M66 48L67 49L66 48M122.333 48.6667C122.278 48.7223 122.222 49.7778 122.667 49.3333C122.722 49.2778 122.778 48.2222 122.333 48.6667M182 48L183 49L182 48M191 48L192 49L191 48M72.3333 49.6667C72.2778 49.7223 72.2222 50.7778 72.6667 50.3333C72.7222 50.2778 72.7778 49.2222 72.3333 49.6667M74.3333 49.6667C74.2777 49.7223 74.2222 50.7778 74.6667 50.3333C74.7222 50.2778 74.7778 49.2222 74.3333 49.6667M86 49L87 50L86 49M183 49L184 50L183 49M120 50L121 51L120 50M142 50L142 57C143.059 54.4657 143.059 52.5343 142 50M184 50L185 51L184 50M192 50L193 51L192 50M21.3333 51.6667C21.2778 51.7222 21.2222 52.7778 21.6667 52.3333C21.7222 52.2778 21.7778 51.2222 21.3333 51.6667M45 51L46 52L45 51M100.667 51.3333C100.222 51.7778 101.278 51.7222 101.333 51.6667C101.778 51.2222 100.722 51.2778 100.667 51.3333M185 51L186 52L185 51M23 52L24 53L23 52M50 52L51 53L50 52M58 52L59 53L58 52M77 52L78 53L77 52M80 52L81 53L80 52M97 52L98 53L97 52M193.333 52.6667C193.278 52.7222 193.222 53.7778 193.667 53.3333C193.722 53.2778 193.778 52.2222 193.333 52.6667M33 53L34 54L33 53M39.3333 53.6667C39.2778 53.7222 39.2222 54.7778 39.6667 54.3333C39.7222 54.2778 39.7778 53.2222 39.3333 53.6667M44 53L45 54L44 53M57 53L58 54L57 53M65 53L66 54L65 53M73 53L74 54L73 53M76 53L77 54L76 53M81 53L82 54L81 53M85 53L85 64C86.4309 60.59 86.4309 56.41 85 53M95 53L96 54L95 53M186 53L187 54L186 53M32 54L33 55L32 54M52.3333 54.6667C52.2778 54.7222 52.2222 55.7778 52.6667 55.3333C52.7222 55.2778 52.7778 54.2222 52.3333 54.6667M54 54L55 55L54 54M56 54L57 55L56 54M60 54C61.2483 54.6848 61.5484 54.7488 63 55C61.7516 54.3152 61.4516 54.2512 60 54M67 54L68 55L67 54M75 54L76 55L75 54M79 54L80 55L79 54M93 54L94 55L93 54M187 54L188 55L187 54M20 55L21 56L20 55M31 55L32 56L31 55M35.3333 55.6667C35.2778 55.7222 35.2222 56.7778 35.6667 56.3333C35.7222 56.2778 35.7778 55.2222 35.3333 55.6667M41.3333 55.6667C41.2778 55.7222 41.2222 56.7778 41.6667 56.3333C41.7222 56.2778 41.7778 55.2222 41.3333 55.6667M47 55L48 56L47 55M50.3333 55.6667C50.2778 55.7222 50.2222 56.7778 50.6667 56.3333C50.7222 56.2778 50.7778 55.2222 50.3333 55.6667z"/>
<path style="fill:#fcfcfc; stroke:none;" d="M51 55L52 56L51 55z"/>
<path style="fill:#d0c756; stroke:none;" d="M58 55L57 57C58.2627 56.0287 58.3919 56.3063 58 55z"/>
<path style="fill:#fcfcfc; stroke:none;" d="M57 57C58.3303 58.7525 59.2475 59.6697 61 61L62 55C59.9442 55.4875 58.8559 55.9519 57 57z"/>
<path style="fill:#d0c756; stroke:none;" d="M64 55L65 56L64 55M69 55C69.5451 56.6352 69.3649 56.455 71 57C70.4549 55.3648 70.6352 55.5451 69 55z"/>
<path style="fill:#fcfcfc; stroke:none;" d="M70 55L71 56L70 55M77 57L80 56C78.2337 55.5991 78.4426 55.7108 77 57z"/>
<path style="fill:#d0c756; stroke:none;" d="M81 55L82 56L81 55M91 55L92 56L91 55M22 56L23 57L22 56z"/>
<path style="fill:#fcfcfc; stroke:none;" d="M34 56C33.0427 57.5167 32.6128 58.3385 32 60C33.63 58.4852 34.1631 58.1447 34 56z"/>
<path style="fill:#d0c756; stroke:none;" d="M55 56L56 57L55 56z"/>
<path style="fill:#fcfcfc; stroke:none;" d="M69 56L67 60C68.63 58.4852 69.1631 58.1447 69 56z"/>
<path style="fill:#d0c756; stroke:none;" d="M74 56L75 57L74 56M78 56L79 57L78 56M90 56L91 57L90 56M134 56L135 57L134 56M19 57L20 58L19 57M30 57L31 58L30 57M44 57L45 58L44 57M61 57L62 58L61 57M72 57L73 58L72 57M21 58L21 60L23 60C22.4549 58.3648 22.6352 58.5451 21 58M36 58L37 59L36 58M43 58L44 59L43 58M46 58L46 61C46.6961 59.4463 46.6961 59.5537 46 58M55 58L56 59L55 58M57 58L58 59L57 58M63 58L63 61C63.6961 59.4463 63.6961 59.5537 63 58M65 58L66 59L65 58M67 58L68 59L67 58M69 58L70 59L69 58M89 58L90 59L89 58M31.3333 59.6667C31.2778 59.7222 31.2222 60.7778 31.6667 60.3333C31.7222 60.2778 31.7778 59.2222 31.3333 59.6667M33 59L34 60L33 59M38 59L39 60L38 59z"/>
<path style="fill:#fcfcfc; stroke:none;" d="M55 59C54.0143 60.4785 54 60.2032 54 62L57 62C56.3164 60.42 56.1952 60.2228 55 59z"/>
<path style="fill:#d0c756; stroke:none;" d="M58 59L59 60L58 59M68 59L69 60L68 59M75 59L76 60L75 59M82 59L83 60L82 59M135 59L136 60L135 59M143 59L144 60L143 59M25 60L26 61L25 60M40 60L41 61L40 60M48 60L49 61L48 60M59 60L60 61L59 60M67 60L68 61L67 60M81 60L82 61L81 60M88 60L89 61L88 60M193 60L194 61L193 60M27 61C28.2483 61.6848 28.5484 61.7488 30 62C28.7517 61.3152 28.4516 61.2512 27 61M34 61L35 62L34 61M37 61L38 62L37 61M53 61L53 64C53.6961 62.4463 53.6961 62.5537 53 61M57 61L58 62L57 61M60 61L60 63C61.6352 62.4549 61.4549 62.6352 62 61L60 61M65 61L66 62L65 61M69.6667 61.3333C69.2222 61.7778 70.2778 61.7222 70.3333 61.6667C70.7778 61.2222 69.7222 61.2778 69.6667 61.3333M80 61L81 62L80 61M136 61L137 62L136 61M144 61L145 62L144 61M187 61L188 62L187 61M18 62L19 63L18 62M24 62L25 63L24 62M30 62L31 63L30 62M39 62L40 63L39 62M43 62L44 63L43 62M46.6667 62.3333C46.2222 62.7778 47.2778 62.7222 47.3333 62.6667C47.7778 62.2222 46.7222 62.2778 46.6667 62.3333M51 62L52 63L51 62M64 62L65 63L64 62M68 62L69 63L68 62M79 62L80 63L79 62M87 62L88 63L87 62M192 62L193 63L192 62M58 63L59 64L58 63M137 63L138 64L137 63M186 63L187 64L186 63M54 64C55.2483 64.6848 55.5484 64.7488 57 65C55.7516 64.3152 55.4516 64.2512 54 64M86 64L87 65L86 64M145 64L146 65L145 64M138 65L139 66L138 65M185 65L186 66L185 65M190 66L191 67L190 66M80.6667 67.3333C80.2222 67.7778 81.2778 67.7222 81.3333 67.6667C81.7778 67.2222 80.7222 67.2778 80.6667 67.3333M139 67L140 68L139 67M146 67L147 68L146 67z"/>
<path style="fill:#28373d; stroke:none;" d="M72 77C71.2156 80.2638 70.3394 82.5821 68 85L70 76C67.1452 79.2828 67.0356 82.7623 67 87L72 86C72.9176 88.3817 73.6756 90.4614 74 93C76.6504 89.506 76.6581 84.3319 77 80L81 80C80.6415 82.5107 80.5975 84.4982 81 87C82.58 86.3164 82.7772 86.1952 84 85C85.5167 85.9573 86.3385 86.3872 88 87C87.7092 84.8492 88.7616 79.3076 87.1883 77.8272C85.426 76.1688 80.1709 78.7192 78 79C81.8076 75.7353 82.88 72.9655 83 68C76.7894 69.0109 77.4195 75.5526 72 77z"/>
<path style="fill:#d0c756; stroke:none;" d="M119 69L120 70L119 69z"/>
<path style="fill:#28373d; stroke:none;" d="M120 69C119.356 71.1059 119.094 72.7951 119 75C120.495 72.8149 120.889 71.508 120 69z"/>
<path style="fill:#d0c756; stroke:none;" d="M147 69L148 70L147 69M182 69L183 70L182 69z"/>
<path style="fill:#28373d; stroke:none;" d="M44 70C42.0051 76.2388 40.3243 82.5841 39 89C40.8743 86.4844 41.5352 84.0973 42 81C44.0175 81.9874 44.8013 82.2331 47 82C47.271 86.9318 48.5846 90.222 54 89L54 85C60.2041 88.1866 61.083 83.1284 63 78C63.6147 80.8245 63.3437 83.1266 63 86C66.3526 83.4478 66.09 79.7947 65 76C63.42 76.6836 63.2228 76.8048 62 78C60.8137 76.9644 60.3964 76.6614 59 76C59.764 79.984 59.6144 82.7868 56 85C57.0254 81.7422 57.7001 79.3583 57 76C51.9313 78.7099 48.5447 83.1361 53 88C46.5521 86.0083 49.9072 77.7807 51 73C48.1395 74.9509 47.2416 77.8145 46 81C44.2718 77.248 45.3179 73.6649 44 70z"/>
<path style="fill:#d0c756; stroke:none;" d="M45.3333 70.6667C45.2778 70.7222 45.2222 71.7778 45.6667 71.3333C45.7222 71.2778 45.7778 70.2222 45.3333 70.6667M77 70L78 71L77 70M79 70L80 71L79 70z"/>
<path style="fill:#fcfcfc; stroke:none;" d="M80 70C78.957 72.0955 78.3972 73.6987 78 76C80.7187 74.4267 81.3727 73.0751 82 70L80 70z"/>
<path style="fill:#d0c756; stroke:none;" d="M83.3333 70.6667C83.2778 70.7222 83.2222 71.7778 83.6667 71.3333C83.7222 71.2778 83.7778 70.2222 83.3333 70.6667z"/>
<path style="fill:#28373d; stroke:none;" d="M101 70C97.6991 78.1394 87.5068 76.0146 90 87C93.0442 86.3646 94.3157 85.6139 96 83L91 85C91.9313 80.4462 93.7824 79.3687 98 78C97.219 81.3127 97.0582 83.7236 98 87C101.168 85.2565 101.731 83.565 102 80C101.076 81.6481 100.551 83.1749 100 85C99.0959 80.9974 100.18 79.4044 104 78C103.219 81.3127 103.058 83.7236 104 87L108 86C108.98 87.7833 108.908 87.5943 111 88C111.779 83.0081 113.547 79.5389 118 77C116.372 80.3813 116.033 83.2667 116 87L121 87L124 78C124.615 80.8245 124.344 83.1266 124 86C127.353 83.4478 127.09 79.7947 126 76C124.42 76.6836 124.223 76.8048 123 78C119.103 75.3025 115.423 76.5736 111 77C110.438 80.0251 110.064 82.9221 110 86C109.058 82.7236 109.219 80.3127 110 77C107.364 79.0985 106.443 82.5569 104 85L106 76L101 76C101.387 73.7316 101.676 72.1635 101 70z"/>
<path style="fill:#d0c756; stroke:none;" d="M141 70L142 71L141 70M148 70L149 71L148 70M181 70L182 71L181 70M186 70L187 71L186 70M43 71L44 72L43 71M100 71L101 72L100 71M180 71L181 72L180 71M185 71L186 72L185 71M76 72L77 73L76 72M78 72L79 73L78 72M118.333 72.6667C118.278 72.7222 118.222 73.7778 118.667 73.3333C118.722 73.2778 118.778 72.2222 118.333 72.6667M149 72L150 73L149 72M179 72L180 73L179 72M184 72L185 73L184 72M48.3333 73.6667C48.2778 73.7222 48.2222 74.7778 48.6667 74.3333C48.7222 74.2778 48.7778 73.2222 48.3333 73.6667M81 73L82 74L81 73M101.333 73.6667C101.278 73.7222 101.222 74.7778 101.667 74.3333C101.722 74.2778 101.778 73.2222 101.333 73.6667M120 73L121 74L120 73M178 73L179 74L178 73M42 74L43 75L42 74M44 74L44 79C44.8299 76.9695 44.8299 76.0305 44 74M82 74L83 75L82 74M99 74L100 75L99 74M144 74L145 75L144 74M150 74L151 75L150 74M177 74L178 75L177 74M50 75L51 76L50 75M57 77L60 76C58.2337 75.5991 58.4426 75.7108 57 77M75.3333 75.6667C75.2778 75.7222 75.2222 76.7778 75.6667 76.3333C75.7222 76.2778 75.7778 75.2222 75.3333 75.6667M115.667 75.3333C115.222 75.7778 116.278 75.7222 116.333 75.6667C116.778 75.2222 115.722 75.2778 115.667 75.3333M119 75L119 77C120.635 76.455 120.455 76.6352 121 75L119 75M145 75L146 76L145 75M151 75L152 76L151 75M180 75L181 76L180 75M55 76L56 77L55 76z"/>
<path style="fill:#fcfcfc; stroke:none;" d="M58 76L57 85L59 85C59.4305 81.5049 60.1344 78.9298 58 76z"/>
<path style="fill:#d0c756; stroke:none;" d="M62 76L63 77L62 76M72 76C72.5451 77.6352 72.3648 77.4549 74 78L74 76L72 76M77.6667 76.3333C77.2222 76.7778 78.2778 76.7222 78.3333 76.6667C78.7778 76.2222 77.7222 76.2778 77.6667 76.3333M85 76L86 77L85 76M87 76L88 77L87 76M92 76L93 77L92 76M103 76L104 77L103 76M108.667 76.3333C108.222 76.7778 109.278 76.7222 109.333 76.6667C109.778 76.2222 108.722 76.2778 108.667 76.3333M123 76L124 77L123 76M132 76C133.248 76.6848 133.548 76.7488 135 77L135 84C136.537 80.2958 135.936 77.3065 132 76M146 76L147 77L146 76M47 77L48 78L47 77M61 77L62 78L61 77M71 77L71 80C71.6961 78.4463 71.6961 78.5537 71 77M88 77L89 78L88 77M107 77L107 81C107.71 79.2405 107.71 78.7595 107 77M117 77L118 78L117 77z"/>
<path style="fill:#fcfcfc; stroke:none;" d="M120 77C118.988 79.373 118.378 81.4493 118 84C119.981 81.7232 120.866 79.9521 120 77z"/>
<path style="fill:#d0c756; stroke:none;" d="M122 77L123 78L122 77z"/>
<path style="fill:#28373d; stroke:none;" d="M129 87L133 86C131.914 89.0587 130.808 90.3747 128 92L127 89C125.57 93.3638 130.353 94.949 133.142 91.5656C136.118 87.9549 135 81.3476 135 77C129.323 77.8978 127.54 81.6205 129 87z"/>
<path style="fill:#d0c756; stroke:none;" d="M177 77L178 78L177 77M41 78L42 79L41 78M49 78L50 79L49 78M58 78L59 79L58 78M63 78L64 79L63 78M78 78L79 79L78 78M90 78L91 79L90 78M94 78C95.8498 79.3789 96.4077 79.715 98 78L94 78M101 80L104 80C103.232 78.6859 103.314 78.7679 102 78C100.7 78.6498 101 78.1468 101 80M109 78L109 80L111 80L111 78L109 78M114 78L115 79L114 78M124 78L125 79L124 78M148 78L149 79L148 78M153 78L154 79L153 78M46 79L47 80L46 79M55 79L54 81L56 81C56 79.1468 56.2997 79.6498 55 79M62 79L63 80L62 79M67 79L68 80L67 79M69 79L70 80L69 79M85 79C83.687 80.7221 82.5661 82.5482 81 84C84.0306 84.0732 85.3965 81.9009 85 79M88.6667 79.3333C88.2222 79.7778 89.2778 79.7222 89.3333 79.6667C89.7778 79.2222 88.7222 79.2778 88.6667 79.3333M92 79L93 80L92 79z"/>
<path style="fill:#fcfcfc; stroke:none;" d="M93 79C92.11 80.7447 91.5471 82.125 91 84C93.1723 83.5363 94.9583 82.8945 97 82L97 80L93 79z"/>
<path style="fill:#d0c756; stroke:none;" d="M99 79L100 80L99 79z"/>
<path style="fill:#fcfcfc; stroke:none;" d="M100 79C99.4382 80.8006 99.1759 82.1218 99 84C100.475 82.0648 100.791 81.3073 100 79M102.333 79.6667C102.278 79.7222 102.222 80.7778 102.667 80.3333C102.722 80.2778 102.778 79.2222 102.333 79.6667z"/>
<path style="fill:#d0c756; stroke:none;" d="M105 79L106 80L105 79M116 79L117 80L116 79M123 79L124 80L123 79z"/>
<path style="fill:#fcfcfc; stroke:none;" d="M129 85C131.808 83.3747 132.914 82.0587 134 79C131.082 80.5169 130.078 81.8926 129 85z"/>
<path style="fill:#d0c756; stroke:none;" d="M171 79L172 80L171 79M174 79L175 80L174 79M45 80L46 81L45 80M57 80L58 81L57 80z"/>
<path style="fill:#fcfcfc; stroke:none;" d="M73 80L73 86C73.9511 83.7147 73.9511 82.2853 73 80z"/>
<path style="fill:#d0c756; stroke:none;" d="M74 80L74 84C74.7102 82.2405 74.7102 81.7595 74 80M77 80C78.2484 80.6848 78.5484 80.7488 80 81C78.7516 80.3152 78.4516 80.2512 77 80z"/>
<path style="fill:#fcfcfc; stroke:none;" d="M88 80C87.4382 81.8006 87.1759 83.1218 87 85L89 85C88.9124 83.0359 88.7789 81.769 88 80M109 80L109 83C109.696 81.4463 109.696 81.5537 109 80z"/>
<path style="fill:#d0c756; stroke:none;" d="M118 80L119 81L118 80M120.333 80.6667C120.278 80.7222 120.222 81.7778 120.667 81.3333C120.722 81.2778 120.778 80.2222 120.333 80.6667M128 80L129 81L128 80M150 80L151 81L150 80M170 80L171 81L170 80M172 80L173 81L172 80M42.6667 81.3333C42.2222 81.7778 43.2778 81.7222 43.3333 81.6667C43.7778 81.2222 42.7222 81.2778 42.6667 81.3333z"/>
<path style="fill:#fcfcfc; stroke:none;" d="M52 84C53.4566 82.8966 53.8966 82.4566 55 81C53.0775 81.9015 53.0012 82.0762 52 84z"/>
<path style="fill:#d0c756; stroke:none;" d="M59 81L60 82L59 81M61 81L62 82L61 81M91 81L92 82L91 81M102 81L102 85C102.71 83.2405 102.71 82.7595 102 81M112 81L113 82L112 81M122 81L123 82L122 81M133 81L134 82L133 81M151 81L152 82L151 81M155 81L156 82L155 81M169 81L170 82L169 81M40 82L41 83L40 82M46 82L47 83L46 82M50 82L51 83L50 82M52 82L53 83L52 82M54 82L55 83L54 82M63 82L64 83L63 82M66 82C65.0143 83.4785 65 83.2032 65 85C66.7663 84.0214 66.9555 83.7782 66 82M68 82C68.4057 84.0924 68.2167 84.0198 70 85C69.3087 83.6116 69.0154 83.1393 68 82M70 82L71 83L70 82M80 82L81 83L80 82z"/>
<path style="fill:#fcfcfc; stroke:none;" d="M83 82L84 83L83 82z"/>
<path style="fill:#d0c756; stroke:none;" d="M95 82L95 85C97.0059 83.8734 97.0059 83.1266 95 82M104 82C104.406 84.0924 104.217 84.0198 106 85C105.309 83.6116 105.015 83.1394 104 82M115 82L115 86C115.71 84.2405 115.71 83.7595 115 82M124 82L125 83L124 82M127 82C126.014 83.4785 126 83.2032 126 85C127.766 84.0214 127.955 83.7782 127 82M129 82L130 83L129 82M152 82L153 83L152 82M53 83L54 84L53 83M56.3333 83.6667C56.2778 83.7222 56.2222 84.7778 56.6667 84.3333C56.7222 84.2778 56.7778 83.2222 56.3333 83.6667z"/>
<path style="fill:#fcfcfc; stroke:none;" d="M82 83L83 84L82 83z"/>
<path style="fill:#d0c756; stroke:none;" d="M94 83L95 84L94 83M100 83L101 84L100 83M109 83L109 86C109.696 84.4463 109.696 84.5537 109 83M117 83L117 85L119 85C118.455 83.3648 118.635 83.5451 117 83M41 84L42 85L41 84M51.6667 84.3333C51.2222 84.7778 52.2778 84.7222 52.3333 84.6667C52.7778 84.2222 51.7222 84.2778 51.6667 84.3333M76 84L76 88C76.7102 86.2405 76.7102 85.7595 76 84M91 84C92.2484 84.6848 92.5484 84.7488 94 85C92.7517 84.3152 92.4516 84.2512 91 84M99 84L100 85L99 84M111 84L111 88C111.71 86.2405 111.71 85.7595 111 84M130 84L131 85L130 84M157 84L158 85L157 84M54 85L53 86L54 88L56 87C55.4549 85.3648 55.6352 85.5451 54 85M60.3333 85.6667C60.2778 85.7222 60.2222 86.7778 60.6667 86.3333C60.7222 86.2778 60.7778 85.2222 60.3333 85.6667M80 85L81 86L80 85M84 85L85 86L84 85M88 85L88 87C89.6351 86.4549 89.4549 86.6352 90 85L88 85M121.333 85.6667C121.278 85.7222 121.222 86.7778 121.667 86.3333C121.722 86.2778 121.778 85.2222 121.333 85.6667M156 85L157 86L156 85M158 85L159 86L158 85M39 86L40 87L39 86M63.6667 86.3333C63.2222 86.7778 64.2778 86.7222 64.3333 86.6667C64.7778 86.2222 63.7222 86.2778 63.6667 86.3333M71 86L72 87L71 86M83 86L84 87L83 86M85 86L86 87L85 86M93 86L94 87L93 86M97 86L98 87L97 86M100 86L101 87L100 86M103 86L104 87L103 86M107 86L108 87L107 86M118.667 86.3333C118.222 86.7778 119.278 86.7222 119.333 86.6667C119.778 86.2222 118.722 86.2778 118.667 86.3333M124.667 86.3333C124.222 86.7778 125.278 86.7222 125.333 86.6667C125.778 86.2222 124.722 86.2778 124.667 86.3333M128 86L129 87L128 86M131 86L132 87L131 86M157 86L158 87L157 86M40 87L41 88L40 87M47 87L48 88L47 87M59 87L60 88L59 87M86.6667 87.3333C86.2222 87.7778 87.2778 87.7222 87.3333 87.6667C87.7778 87.2222 86.7222 87.2778 86.6667 87.3333M120 87L121 88L120 87M51 88L52 89L51 88M127.333 88.6667C127.278 88.7222 127.222 89.7778 127.667 89.3333C127.722 89.2778 127.778 88.2222 127.333 88.6667M132 88L133 89L132 88M38 89L38 91C39.6352 90.4549 39.4549 90.6352 40 89L38 89M48 89L49 90L48 89M134 89L135 90L134 89M50.6667 90.3333C50.2222 90.7778 51.2778 90.7222 51.3333 90.6667C51.7778 90.2222 50.7222 90.2778 50.6667 90.3333M131 90L132 91L131 90M128.667 91.3333C128.222 91.7778 129.278 91.7222 129.333 91.6667C129.778 91.2222 128.722 91.2778 128.667 91.3333M75 92L76 93L75 92M74 93L75 94L74 93M131 93L132 94L131 93z"/>
</svg>
